<svg width="30" height="30" viewBox="0 0 30 30" fill="none" xmlns="http://www.w3.org/2000/svg">
<path d="M28.9568 3L29.9546 2.93385C29.928 2.5327 29.6638 2.18649 29.2839 2.055C28.9039 1.92351 28.4822 2.03231 28.2133 2.33119L28.9568 3ZM27.9599 8.91781C27.9599 8.36552 27.5122 7.91781 26.9599 7.91781C26.4076 7.91781 25.9599 8.36552 25.9599 8.91781H27.9599ZM14.9784 9.08219H13.9784V9.08219L14.9784 9.08219ZM14.9784 11L15.9784 11V11L14.9784 11ZM1 25V24C0.559465 24 0.170822 24.2883 0.0430114 24.7099C-0.0847992 25.1315 0.0783334 25.587 0.444707 25.8317L1 25ZM2.99691 3L3.93342 2.64935C3.79388 2.27668 3.44667 2.02221 3.04927 2.00137C2.65188 1.98054 2.27995 2.1973 2.10221 2.55334L2.99691 3ZM10.9846 21L11.6922 21.7066C11.9369 21.4615 12.0374 21.1072 11.9578 20.7701C11.8781 20.433 11.6298 20.1611 11.3012 20.0515L10.9846 21ZM25.4321 4.94676L24.6904 5.61745L25.0507 6.01593L25.5819 5.93549L25.4321 4.94676ZM27.959 3.06615C28.0621 4.62176 27.9667 5.56623 27.7145 6.27711C27.4698 6.96709 27.0425 7.53578 26.268 8.27798L27.6517 9.72202C28.5273 8.883 29.205 8.05755 29.5994 6.94576C29.9864 5.85487 30.0644 4.58996 29.9546 2.93385L27.959 3.06615ZM27.9599 10.375V8.91781H25.9599V10.375H27.9599ZM13.9784 9.08219L13.9784 11L15.9784 11L15.9784 9.08219L13.9784 9.08219ZM13.9784 11L13.9784 12L15.9784 12L15.9784 11L13.9784 11ZM21.0512 2C17.1435 2 13.9784 5.17226 13.9784 9.08219H15.9784C15.9784 6.27392 18.251 4 21.0512 4V2ZM25.9599 10.375C25.9599 19.0059 18.9743 26 10.3605 26V28C20.0818 28 27.9599 20.1076 27.9599 10.375H25.9599ZM2.06041 3.35065C3.14715 6.25312 7.22853 12 14.9784 12V10C8.35048 10 4.84359 5.08021 3.93342 2.64935L2.06041 3.35065ZM2.10221 2.55334C0.00875849 6.74671 -0.313793 10.8139 1.20772 14.2772C2.72576 17.7326 5.99195 20.3875 10.6679 21.9485L11.3012 20.0515C6.99107 18.6125 4.26652 16.2674 3.03881 13.4728C1.81456 10.6861 1.99124 7.25329 3.89162 3.44666L2.10221 2.55334ZM10.2769 20.2934C9.07269 21.4995 5.4522 24 1 24V26C6.13299 26 10.2339 23.1671 11.6922 21.7066L10.2769 20.2934ZM26.1739 4.27608C24.9113 2.87978 23.0833 2 21.0512 2V4C22.494 4 23.7906 4.62239 24.6904 5.61745L26.1739 4.27608ZM25.5819 5.93549C27.1029 5.70512 28.5869 4.90634 29.7002 3.66881L28.2133 2.33119C27.3976 3.23794 26.3278 3.79971 25.2824 3.95804L25.5819 5.93549ZM0.444707 25.8317C3.72608 28.0226 7.16674 28 10.3605 28V26C7.10066 26 4.26466 25.9774 1.55529 24.1683L0.444707 25.8317Z" fill="white"/>
</svg>
